<?xml version="1.0" standalone="no"?>
<!DOCTYPE svg PUBLIC "-//W3C//DTD SVG 20010904//EN"
 "http://www.w3.org/TR/2001/REC-SVG-20010904/DTD/svg10.dtd">
<svg version="1.0" xmlns="http://www.w3.org/2000/svg"
 width="394.000000pt" height="200.000000pt" viewBox="0 0 394.000000 200.000000"
 preserveAspectRatio="xMidYMid meet">

<g transform="translate(0.000000,200.000000) scale(0.100000,-0.100000)"
fill="#000000" stroke="none">
<path d="M773 1538 c-6 -7 -12 -19 -14 -26 -6 -19 -121 -64 -133 -52 -20 20
-44 9 -90 -40 -46 -49 -47 -52 -32 -75 9 -13 12 -26 7 -30 -5 -3 -17 -28 -26
-55 -9 -28 -23 -50 -30 -50 -29 0 -45 -31 -45 -85 0 -66 7 -85 31 -85 14 0 27
-17 45 -57 21 -48 24 -63 15 -86 -9 -27 -6 -33 36 -78 46 -49 69 -59 90 -38 8
8 19 6 41 -5 46 -24 52 -20 52 29 0 33 -5 47 -19 54 -25 14 -89 103 -114 159
-24 56 -21 168 8 226 24 50 74 100 128 128 64 34 184 32 253 -4 117 -61 176
-197 141 -319 -15 -51 -83 -157 -120 -188 -11 -9 -17 -29 -17 -57 0 -24 2 -44
5 -44 4 0 19 7 35 15 23 12 34 13 55 3 24 -11 30 -8 77 40 47 46 51 53 41 75
-16 35 26 140 59 147 21 5 23 12 26 79 l3 72 -31 12 c-16 6 -30 17 -30 25 0 7
-9 31 -21 54 -17 34 -19 45 -9 63 15 28 4 50 -45 94 -37 32 -63 39 -82 20 -8
-8 -20 -6 -44 7 -19 9 -45 20 -59 24 -15 4 -27 16 -30 31 -5 22 -11 24 -76 27
-49 2 -74 -1 -81 -10z"/>
<path d="M750 1334 c-76 -33 -128 -109 -136 -197 l-4 -52 16 35 c34 74 93 130
139 130 29 0 65 -46 65 -84 0 -19 -4 -38 -10 -41 -15 -9 -12 -41 5 -55 21 -18
55 -3 55 25 0 13 -4 27 -10 30 -5 3 -10 22 -10 41 0 39 36 84 67 84 45 0 118
-70 141 -135 10 -29 10 -29 11 15 1 81 -51 160 -131 201 -46 23 -147 25 -198
3z"/>
<path d="M717 1173 c-33 -35 -57 -92 -57 -135 1 -48 33 -111 74 -144 l36 -29
0 -263 0 -263 25 -24 c31 -32 75 -32 112 -1 l28 24 3 269 2 268 24 20 c73 61
88 166 37 247 -29 45 -60 66 -81 53 -5 -3 -10 -35 -10 -70 0 -62 -1 -65 -32
-81 -30 -15 -34 -15 -65 1 -32 18 -33 19 -33 87 0 59 -2 68 -18 68 -10 0 -30
-12 -45 -27z m79 -173 l51 -30 54 33 c50 30 54 35 59 77 l5 45 14 -38 c7 -22
10 -53 7 -72 -8 -39 -47 -91 -76 -100 -19 -6 -20 -17 -20 -278 0 -150 -4 -278
-9 -285 -4 -8 -19 -12 -32 -10 l-24 3 -3 277 -2 277 -39 21 c-21 12 -45 35
-54 50 -20 33 -22 102 -4 133 11 20 12 18 17 -26 5 -46 8 -50 56 -77z"/>
<path d="M2458 1158 c-26 -22 -238 -397 -238 -423 0 -34 27 -57 63 -53 24 2
38 13 60 46 l28 42 124 0 124 0 28 -42 c22 -33 36 -44 60 -46 36 -4 63 19 63
53 0 23 -222 414 -243 427 -18 12 -51 9 -69 -4z m60 -20 c17 -17 15 -43 -4
-59 -31 -26 -70 25 -44 56 15 18 32 19 48 3z m-53 -99 c15 -28 14 -32 -17 -89
-32 -58 -34 -60 -75 -60 -24 0 -43 3 -43 6 0 17 104 183 111 178 5 -3 16 -19
24 -35z m144 -48 c28 -48 51 -91 51 -95 0 -3 -19 -6 -42 -6 -42 0 -44 2 -76
60 -28 51 -31 63 -21 82 12 25 29 48 34 48 2 0 26 -40 54 -89z m-73 -73 l15
-28 -56 0 c-61 0 -61 0 -17 69 15 22 16 22 30 5 7 -11 20 -31 28 -46z m-172
-70 c23 -38 -35 -78 -61 -42 -17 23 -16 29 3 49 20 19 43 16 58 -7z m219 -13
c9 -20 17 -38 17 -40 0 -3 -47 -5 -105 -5 -58 0 -105 3 -105 8 0 4 9 22 20 40
19 31 22 32 88 32 l68 0 17 -35z m101 19 c19 -18 19 -20 6 -45 -18 -33 -70
-18 -70 21 0 19 19 40 36 40 7 0 20 -7 28 -16z m-373 -100 c17 -21 0 -49 -31
-49 -27 0 -46 25 -37 49 8 21 51 21 68 0z m434 -4 c14 -43 -44 -67 -68 -28 -8
12 -7 21 2 32 19 23 58 20 66 -4z"/>
<path d="M2870 1150 c-11 -11 -20 -28 -20 -38 0 -9 53 -110 118 -222 116 -201
118 -205 153 -208 24 -2 40 3 51 15 20 23 224 373 232 400 8 26 -28 73 -58 73
-31 0 -54 -28 -129 -160 -36 -63 -72 -123 -79 -132 -12 -16 -22 -3 -88 114
-41 72 -83 142 -93 155 -23 28 -60 30 -87 3z m74 -22 c23 -38 -35 -78 -61 -42
-17 23 -16 29 3 49 20 19 43 16 58 -7z m424 10 c28 -28 1 -75 -38 -63 -33 11
-21 75 15 75 6 0 16 -5 23 -12z m-324 -179 l69 -120 -16 -35 c-9 -19 -21 -34
-26 -34 -9 0 -161 258 -161 273 0 4 6 7 14 7 7 0 19 7 26 15 7 8 15 15 19 15
3 0 37 -54 75 -121z m256 111 c0 -5 11 -12 25 -16 14 -3 25 -8 25 -11 0 -2
-37 -67 -82 -145 l-81 -140 -23 38 c-23 38 -23 39 -6 69 10 16 43 72 72 123
49 84 70 108 70 82z m-139 -316 c17 -21 0 -49 -31 -49 -27 0 -46 25 -37 49 8
21 51 21 68 0z"/>
<path d="M1476 1074 c-9 -8 -16 -19 -16 -24 0 -5 -21 -19 -47 -30 -38 -17 -53
-19 -71 -10 -21 9 -29 6 -68 -34 -40 -39 -43 -47 -34 -68 9 -18 7 -33 -10 -71
-11 -26 -27 -47 -35 -47 -23 0 -36 -37 -33 -88 2 -37 8 -49 24 -56 29 -13 67
-102 53 -127 -8 -15 -2 -27 32 -64 39 -43 71 -56 83 -36 4 5 24 1 46 -10 21
-10 43 -19 47 -19 5 0 13 -10 18 -23 9 -20 17 -22 75 -22 55 0 66 3 74 20 10
23 103 68 111 54 12 -19 42 -8 79 30 31 31 38 45 34 66 -8 37 25 117 51 126
18 7 21 16 21 75 0 58 -3 67 -20 71 -28 7 -60 84 -53 126 4 29 0 37 -36 70
-35 31 -44 35 -63 26 -18 -8 -34 -5 -71 11 -26 11 -47 25 -47 30 0 38 -112 57
-144 24z m149 -173 c157 -71 165 -287 15 -371 -93 -51 -211 -22 -273 67 -94
133 8 323 173 323 25 0 63 -9 85 -19z"/>
<path d="M1487 865 c-79 -28 -111 -79 -105 -168 4 -55 8 -63 45 -98 107 -99
273 -32 273 111 0 113 -109 192 -213 155z m67 -121 c22 -8 20 -51 -2 -63 -37
-20 -71 37 -34 58 21 13 17 12 36 5z"/>
</g>
</svg>
